<?xml version="1.0" encoding="UTF-8" standalone="no"?>
<!-- Created with Inkscape (http://www.inkscape.org/) -->

<svg
   width="512"
   height="512"
   viewBox="0 0 512 512"
   version="1.1"
   id="svg1"
   inkscape:version="1.4.2 (ebf0e94, 2025-05-08)"
   sodipodi:docname="icon_night.svg"
   inkscape:export-filename="icon_night-16x16.png"
   inkscape:export-xdpi="3"
   inkscape:export-ydpi="3"
   xmlns:inkscape="http://www.inkscape.org/namespaces/inkscape"
   xmlns:sodipodi="http://sodipodi.sourceforge.net/DTD/sodipodi-0.dtd"
   xmlns="http://www.w3.org/2000/svg"
   xmlns:svg="http://www.w3.org/2000/svg">
  <sodipodi:namedview
     id="namedview1"
     pagecolor="#505050"
     bordercolor="#eeeeee"
     borderopacity="1"
     inkscape:showpageshadow="0"
     inkscape:pageopacity="0"
     inkscape:pagecheckerboard="0"
     inkscape:deskcolor="#505050"
     inkscape:document-units="px"
     inkscape:zoom="0.75634249"
     inkscape:cx="282.9406"
     inkscape:cy="249.22572"
     inkscape:window-width="1025"
     inkscape:window-height="748"
     inkscape:window-x="0"
     inkscape:window-y="0"
     inkscape:window-maximized="0"
     inkscape:current-layer="layer1" />
  <defs
     id="defs1" />
  <g
     inkscape:label="Capa 1"
     inkscape:groupmode="layer"
     id="layer1">
    <rect
       style="opacity:1;fill:#0f1115;fill-opacity:1;stroke:#ffffff;stroke-width:0.528497;stroke-dasharray:none;stroke-dashoffset:52.8497;stroke-opacity:1"
       id="rect22"
       width="667.68695"
       height="565.88123"
       x="-68.751923"
       y="-22.476589"
       ry="0"
       inkscape:label="fondo" />
    <rect
       style="fill:#1f242b;fill-opacity:1;stroke-width:0.416742"
       id="rect9"
       x="260.22849"
       y="38.400002"
       width="213.37154"
       height="213.37154"
       ry="35"
       inkscape:label="rect3" />
    <rect
       style="fill:#1f242b;fill-opacity:1;stroke-width:0.416742"
       id="rect10"
       x="260.22849"
       y="260.22849"
       width="213.37154"
       height="213.37154"
       ry="35"
       inkscape:label="rect2" />
    <rect
       style="fill:#1f242b;fill-opacity:1;stroke-width:0.416742"
       id="rect11"
       x="38.400002"
       y="260.22849"
       width="213.37154"
       height="213.37154"
       ry="35"
       inkscape:label="rect1" />
    <g
       id="g22"
       inkscape:label="1 cuadrado"
       transform="matrix(0.8456918,0,0,0.8456918,38.400001,38.400001)">
      <path
         id="rect21"
         style="fill:#8fa6ff;stroke-width:0.492782;fill-opacity:1"
         d="M 49.279066,0 C 21.97897,0 0,21.97897 0,49.279066 V 203.02512 c 0,27.3001 21.97897,49.27907 49.279066,49.27907 H 203.02512 c 27.3001,0 49.27907,-21.97897 49.27907,-49.27907 V 49.279066 C 252.30419,21.97897 230.32522,0 203.02512,0 Z M 185.25537,12.614719 a 124.27891,124.27891 0 0 1 54.4341,102.794451 124.27891,124.27891 0 0 1 -124.2803,124.2803 124.27891,124.27891 0 0 1 -102.794451,-54.4341 124.27891,124.27891 0 0 0 69.8462,21.48389 124.27891,124.27891 0 0 0 124.278341,-124.278341 124.27891,124.27891 0 0 0 -21.48389,-69.8462 z" />
    </g>
  </g>
</svg>
